<svg xmlns="http://www.w3.org/2000/svg" viewBox="0 0 426.51 43.34"><defs><style>.a{fill:#29abe2;}.b{fill:#93278f;}.c{fill:#f0f;}</style></defs><title>tituloapp</title><path class="a" d="M268.56,47a1.47,1.47,0,0,1-.07.41c-.85,3.36-3,4.66-5.26,4.66-8.14,0-6-13.88-10.73-13.88V48.62A1.5,1.5,0,0,0,254,50.13a1.91,1.91,0,0,1-1.92,1.93h-5.59a1.91,1.91,0,0,1-1.92-1.93,1.49,1.49,0,0,0,1.51-1.51V23.31a1.5,1.5,0,0,0-1.51-1.52,1.91,1.91,0,0,1,1.92-1.92h11.43c6.77,0,9.81,4.1,9.81,9.17s-3.78,9-9.51,9.14c3.63,3,3.92,8.62,7.51,8.62a2.63,2.63,0,0,0,2.11-1.1A1.54,1.54,0,0,1,268.56,47ZM252.5,36.3h1.63c4.85,0,7.25-3.26,7.25-7.26s-2.4-7.25-7.25-7.25H254a1.51,1.51,0,0,0-1.52,1.52Z" transform="translate(-239.59 -14.79)"/><path class="a" d="M293.72,47v.19l-.33,3.77a1.32,1.32,0,0,1-1.3,1.15H273.26a1.9,1.9,0,0,1-1.89-1.93,1.52,1.52,0,0,0,1.52-1.51V23.31a1.53,1.53,0,0,0-1.52-1.52,1.9,1.9,0,0,1,1.89-1.92h18.13a1.29,1.29,0,0,1,1.3,1.14l.33,3.78V25a1.74,1.74,0,0,1-1.74,1.71,5.43,5.43,0,0,0-5.4-4.89h-5.07a1.54,1.54,0,0,0-1.56,1.52V35h4.08a3.73,3.73,0,0,0,3.73-3.77A1.93,1.93,0,0,1,289,33.15v5.63a1.9,1.9,0,0,1-1.93,1.88,3.72,3.72,0,0,0-3.73-3.73h-4.08V48.62a1.53,1.53,0,0,0,1.56,1.51h5.77a5.38,5.38,0,0,0,5.4-4.88A1.73,1.73,0,0,1,293.72,47Z" transform="translate(-239.59 -14.79)"/><path class="a" d="M319,39.74V52.13a1.88,1.88,0,0,1-1.56-.85l-.88-1.44a14.84,14.84,0,0,1-8,2.29c-9.07,0-12.91-7.29-12.91-16.17s3.81-16.17,12.87-16.17c8.22,0,11.1,5.92,11.1,9,0,2.88-1.51,4.18-3.51,4.18a3.09,3.09,0,0,1-3.37-3.33,2.88,2.88,0,0,1,3.11-3.18,6.58,6.58,0,0,0-6.14-4.7c-5.22,0-7.59,5.51-7.59,13.36,0,8.73,3,13.06,8.88,13.06a5.56,5.56,0,0,0,1.56-.19V39.74a1.48,1.48,0,0,0-.45-1.11,1.51,1.51,0,0,0-1.07-.45A1.9,1.9,0,0,1,313,36.3h5.63a1.89,1.89,0,0,1,1.88,1.88A1.53,1.53,0,0,0,319,39.74Z" transform="translate(-239.59 -14.79)"/><path class="a" d="M331.2,23.31V48.62a1.53,1.53,0,0,0,1.56,1.51,1.94,1.94,0,0,1-1.93,1.93h-5.62a1.9,1.9,0,0,1-1.89-1.93,1.52,1.52,0,0,0,1.52-1.51V23.31a1.53,1.53,0,0,0-1.52-1.52,1.9,1.9,0,0,1,1.89-1.92h5.62a1.94,1.94,0,0,1,1.93,1.92A1.54,1.54,0,0,0,331.2,23.31Z" transform="translate(-239.59 -14.79)"/><path class="a" d="M341.67,26.27c.15,6.81,15,7.1,15.25,17.06v.22c0,6.36-6,8.47-10.4,8.55h-.44c-6.92,0-10.22-4.11-10.29-7.52V44.4c0-2.63,1.41-4,3.4-4.07h.12a3,3,0,0,1,3.29,3.22v.18a2.81,2.81,0,0,1-3,3.07,5.89,5.89,0,0,0,5.55,3.59h.19c2.14-.07,5.18-1.22,5.18-5v-.22c-.19-8.33-14.32-6.73-14.58-17.06V27.9c0-5.33,4.7-8,9.47-8.11h.41c7.18,0,10.4,4.92,10.47,7.77v.19c0,2.66-1.52,3.74-3.48,3.77h-.11a3,3,0,0,1-3.26-3.22v-.11a2.69,2.69,0,0,1,3-3h.3a6.53,6.53,0,0,0-6.1-3.63h-.12c-2.92.08-4.81,1.89-4.81,4.59Z" transform="translate(-239.59 -14.79)"/><path class="a" d="M382.78,24.9A1.77,1.77,0,0,1,381,26.68a5.45,5.45,0,0,0-5.44-4.89h-.37a1.53,1.53,0,0,0-1.55,1.52V48.62a1.52,1.52,0,0,0,1.55,1.51,1.93,1.93,0,0,1-1.92,1.93h-5.62a1.94,1.94,0,0,1-1.93-1.93,1.53,1.53,0,0,0,1.56-1.51V23.31a1.54,1.54,0,0,0-1.56-1.52h-.37A5.46,5.46,0,0,0,360,26.68a1.78,1.78,0,0,1-1.74-1.78v-.11l.37-3.78a1.25,1.25,0,0,1,1.26-1.14h21.31A1.25,1.25,0,0,1,382.41,21l.37,3.78Z" transform="translate(-239.59 -14.79)"/><path class="a" d="M408.65,47a1.49,1.49,0,0,1-.08.41c-.85,3.36-3,4.66-5.25,4.66-8.14,0-6-13.88-10.73-13.88V48.62a1.49,1.49,0,0,0,1.51,1.51,1.91,1.91,0,0,1-1.92,1.93h-5.59a1.91,1.91,0,0,1-1.92-1.93,1.49,1.49,0,0,0,1.51-1.51V23.31a1.5,1.5,0,0,0-1.51-1.52,1.91,1.91,0,0,1,1.92-1.92H398c6.77,0,9.8,4.1,9.8,9.17s-3.77,9-9.51,9.14c3.63,3,3.92,8.62,7.51,8.62a2.63,2.63,0,0,0,2.11-1.1A1.53,1.53,0,0,1,408.65,47ZM392.59,36.3h1.62c4.85,0,7.26-3.26,7.26-7.26s-2.41-7.25-7.26-7.25h-.11a1.5,1.5,0,0,0-1.51,1.52Z" transform="translate(-239.59 -14.79)"/><path class="a" d="M433.06,48.69A2,2,0,0,0,435,50.13a1.91,1.91,0,0,1-1.93,1.93h-6a1.91,1.91,0,0,1-1.92-1.93,1.3,1.3,0,0,0,1.33-1.33,1.17,1.17,0,0,0,0-.37L424.78,42h-9.33l-1.89,6.7a1.27,1.27,0,0,0,0,.34,1.11,1.11,0,0,0,1.11,1.1,1.9,1.9,0,0,1-1.89,1.93h-1.22a1.94,1.94,0,0,1-1.93-1.93,2,2,0,0,0,2-1.44l7.14-25.42a1,1,0,0,0,0-.29,1.19,1.19,0,0,0-1.18-1.19,1.91,1.91,0,0,1,1.92-1.92h6.15a1.91,1.91,0,0,1,1.92,1.92,1.05,1.05,0,0,0-1,1,.77.77,0,0,0,0,.26Zm-8.77-8.62-4-15.32L416,40.07Z" transform="translate(-239.59 -14.79)"/><path class="a" d="M460.7,47a1.47,1.47,0,0,1-.07.41c-.85,3.36-3,4.66-5.25,4.66-8.15,0-6-13.88-10.74-13.88V48.62a1.5,1.5,0,0,0,1.52,1.51,1.91,1.91,0,0,1-1.92,1.93h-5.59a1.91,1.91,0,0,1-1.92-1.93,1.49,1.49,0,0,0,1.51-1.51V23.31a1.5,1.5,0,0,0-1.51-1.52,1.91,1.91,0,0,1,1.92-1.92h11.43c6.78,0,9.81,4.1,9.81,9.17s-3.77,9-9.51,9.14c3.63,3,3.92,8.62,7.51,8.62A2.63,2.63,0,0,0,460,45.7,1.52,1.52,0,0,1,460.7,47ZM444.64,36.3h1.63c4.85,0,7.26-3.26,7.26-7.26s-2.41-7.25-7.26-7.25h-.11a1.51,1.51,0,0,0-1.52,1.52Z" transform="translate(-239.59 -14.79)"/><path class="a" d="M498.52,43.14a1.43,1.43,0,0,1,0,.41c-1.52,5.81-5.77,8.58-10.66,8.58-9.06,0-12.95-7.29-12.95-16.17s3.85-16.17,12.92-16.17c8.17,0,11.06,5.92,11.06,9s-1.48,4.18-3.52,4.18A3.08,3.08,0,0,1,492,29.6a2.85,2.85,0,0,1,3.08-3.18,6.57,6.57,0,0,0-6.11-4.7c-5.25,0-7.62,5.51-7.62,13.36,0,8.73,2.88,13.06,8.51,13.06,3.11,0,6.51-2.08,7.62-6.51A1.58,1.58,0,0,1,498.52,43.14Z" transform="translate(-239.59 -14.79)"/><path class="a" d="M523.68,47v.19l-.34,3.77a1.31,1.31,0,0,1-1.25,1.15H503.66a1.9,1.9,0,0,1-1.89-1.93,1.52,1.52,0,0,0,1.52-1.51V23.31a1.53,1.53,0,0,0-1.52-1.52,1.9,1.9,0,0,1,1.89-1.92h5.62a1.94,1.94,0,0,1,1.93,1.92,1.54,1.54,0,0,0-1.56,1.52V48.62a1.53,1.53,0,0,0,1.56,1.51h5.33a5.39,5.39,0,0,0,5.4-4.88A1.71,1.71,0,0,1,523.68,47Z" transform="translate(-239.59 -14.79)"/><path class="a" d="M533.48,23.31V48.62A1.53,1.53,0,0,0,535,50.13a1.94,1.94,0,0,1-1.93,1.93h-5.62a1.9,1.9,0,0,1-1.89-1.93,1.52,1.52,0,0,0,1.52-1.51V23.31a1.53,1.53,0,0,0-1.52-1.52,1.9,1.9,0,0,1,1.89-1.92h5.62A1.94,1.94,0,0,1,535,21.79,1.53,1.53,0,0,0,533.48,23.31Z" transform="translate(-239.59 -14.79)"/><path class="a" d="M560.34,47v.19L560,50.91a1.32,1.32,0,0,1-1.29,1.15H539.88A1.91,1.91,0,0,1,538,50.13a1.52,1.52,0,0,0,1.52-1.51V23.31A1.53,1.53,0,0,0,538,21.79a1.91,1.91,0,0,1,1.89-1.92H558a1.29,1.29,0,0,1,1.3,1.14l.33,3.78V25a1.74,1.74,0,0,1-1.74,1.71,5.43,5.43,0,0,0-5.4-4.89h-5.07a1.53,1.53,0,0,0-1.55,1.52V35H550a3.73,3.73,0,0,0,3.73-3.77,1.93,1.93,0,0,1,1.93,1.92v5.63a1.9,1.9,0,0,1-1.93,1.88A3.72,3.72,0,0,0,550,36.93h-4.07V48.62a1.52,1.52,0,0,0,1.55,1.51h5.77a5.38,5.38,0,0,0,5.4-4.88A1.73,1.73,0,0,1,560.34,47Z" transform="translate(-239.59 -14.79)"/><path class="a" d="M583.73,19.87a1.91,1.91,0,0,1,1.92,1.92,1.53,1.53,0,0,0-1.55,1.52V52.06h-.78a2.25,2.25,0,0,1-1.85-1L566.41,26V48.62a1.6,1.6,0,0,0,.44,1.07,1.48,1.48,0,0,0,1.08.44A1.9,1.9,0,0,1,566,52.06h-1.15A1.9,1.9,0,0,1,563,50.13a1.5,1.5,0,0,0,1.52-1.51V23.31a1.39,1.39,0,0,0-.45-1.07,1.4,1.4,0,0,0-1.07-.45,2,2,0,0,1,.3-1,1.93,1.93,0,0,1,1.62-.88h4a2.15,2.15,0,0,1,1.85,1l11.43,19V23.31a1.54,1.54,0,0,0-.44-1.07,1.51,1.51,0,0,0-1.11-.45,1.93,1.93,0,0,1,1.92-1.92Z" transform="translate(-239.59 -14.79)"/><path class="a" d="M612.18,24.9a1.78,1.78,0,0,1-1.74,1.78A5.46,5.46,0,0,0,605,21.79h-.37a1.53,1.53,0,0,0-1.55,1.52V48.62a1.52,1.52,0,0,0,1.55,1.51,1.94,1.94,0,0,1-1.92,1.93h-5.63a1.94,1.94,0,0,1-1.92-1.93,1.52,1.52,0,0,0,1.55-1.51V23.31a1.53,1.53,0,0,0-1.55-1.52h-.37a5.46,5.46,0,0,0-5.44,4.89,1.78,1.78,0,0,1-1.74-1.78v-.11L588,21a1.25,1.25,0,0,1,1.26-1.14h21.31A1.25,1.25,0,0,1,611.81,21l.37,3.78Z" transform="translate(-239.59 -14.79)"/><path class="a" d="M636.42,47v.19l-.34,3.77a1.32,1.32,0,0,1-1.29,1.15H616a1.9,1.9,0,0,1-1.88-1.93,1.51,1.51,0,0,0,1.51-1.51V23.31a1.52,1.52,0,0,0-1.51-1.52A1.9,1.9,0,0,1,616,19.87h18.13a1.28,1.28,0,0,1,1.3,1.14l.33,3.78V25A1.73,1.73,0,0,1,634,26.68a5.42,5.42,0,0,0-5.4-4.89H623.5A1.53,1.53,0,0,0,622,23.31V35H626a3.73,3.73,0,0,0,3.74-3.77,1.93,1.93,0,0,1,1.92,1.92v5.63a1.9,1.9,0,0,1-1.92,1.88A3.73,3.73,0,0,0,626,36.93H622V48.62a1.52,1.52,0,0,0,1.55,1.51h5.77a5.39,5.39,0,0,0,5.41-4.88A1.73,1.73,0,0,1,636.42,47Z" transform="translate(-239.59 -14.79)"/><path class="a" d="M644.85,26.27c.15,6.81,15,7.1,15.25,17.06v.22c0,6.36-6,8.47-10.4,8.55h-.45C642.33,52.1,639,48,639,44.58V44.4c0-2.63,1.4-4,3.4-4.07h.11a3,3,0,0,1,3.3,3.22v.18a2.81,2.81,0,0,1-3,3.07,5.88,5.88,0,0,0,5.55,3.59h.18c2.15-.07,5.18-1.22,5.18-5v-.22c-.18-8.33-14.31-6.73-14.57-17.06V27.9c0-5.33,4.69-8,9.47-8.11H649c7.17,0,10.39,4.92,10.47,7.77v.19c0,2.66-1.52,3.74-3.48,3.77h-.11a3,3,0,0,1-3.26-3.22v-.11a2.69,2.69,0,0,1,3-3h.3a6.54,6.54,0,0,0-6.11-3.63h-.11c-2.92.08-4.81,1.89-4.81,4.59Z" transform="translate(-239.59 -14.79)"/><path class="b" d="M264.23,58.06a10.15,10.15,0,0,1-6.29-2,6.92,6.92,0,0,1-4.84,2h-5.59a6.93,6.93,0,0,1-6.92-6.93v-5h1.51V27.79h-1.51v-5a6.92,6.92,0,0,1,6.92-6.92h11.43c8.86,0,14.81,5.69,14.81,14.17a13.76,13.76,0,0,1-4.9,10.65l2.78,1.84A6.55,6.55,0,0,1,274.56,48a6.45,6.45,0,0,1-.21,1.59C273,54.83,269.15,58.06,264.23,58.06Z" transform="translate(-239.59 -14.79)"/><path class="b" d="M274.26,58.06a6.92,6.92,0,0,1-6.89-6.93v-5h1.52V27.79h-1.52v-5a6.91,6.91,0,0,1,6.89-6.92h18.13a6.29,6.29,0,0,1,6.27,5.59l.36,4.11V26a6.7,6.7,0,0,1-4.31,6.25,6.88,6.88,0,0,1,.28,1.93v5.63a6.91,6.91,0,0,1-.22,1.71,6.72,6.72,0,0,1,5,6.46v.41l-.36,4.14a6.31,6.31,0,0,1-6.27,5.56Z" transform="translate(-239.59 -14.79)"/><path class="b" d="M320,58.13A6.9,6.9,0,0,1,316.21,57a20.51,20.51,0,0,1-6.65,1.12c-10.88,0-17.91-8.31-17.91-21.17s7-21.17,17.87-21.17c11.11,0,16.1,8.16,16.1,14a10.45,10.45,0,0,1-1,4.69,6.89,6.89,0,0,1,1.89,4.74v5H325v14ZM308.74,30.46a21.42,21.42,0,0,0-.61,5A6.86,6.86,0,0,1,309.4,34a8.82,8.82,0,0,1-.66-3.41Z" transform="translate(-239.59 -14.79)"/><path class="b" d="M326.21,58.06a6.92,6.92,0,0,1-6.89-6.93v-5h1.52V27.79h-1.52v-5a6.91,6.91,0,0,1,6.89-6.92h5.62a6.93,6.93,0,0,1,6.93,6.92v5H337.2V46.13h1.56v5a6.94,6.94,0,0,1-6.93,6.93Z" transform="translate(-239.59 -14.79)"/><path class="b" d="M347.08,58.1c-9.76,0-15.16-6.39-15.29-12.41V45.4a9,9,0,0,1,3.46-7.49,13.16,13.16,0,0,1-3.31-8.7V28.9c0-7.4,6-12.91,14.35-13.11h.53c10.33,0,15.34,7.55,15.47,12.64v.32a8.77,8.77,0,0,1-2.8,6.7,13.4,13.4,0,0,1,3.43,8.75v.35c0,9.13-7.94,13.42-15.31,13.55h-.53Z" transform="translate(-239.59 -14.79)"/><path class="b" d="M368.69,58.06a6.94,6.94,0,0,1-6.93-6.93v-5h1.56V32.68H361a6.77,6.77,0,0,1-6.74-6.78v-.36l.4-4a6.28,6.28,0,0,1,6.23-5.66h21.31a6.26,6.26,0,0,1,6.23,5.59l.4,4.08v.36A6.76,6.76,0,0,1,382,32.68h-2.36V46.13h1.55v5a6.93,6.93,0,0,1-6.92,6.93Z" transform="translate(-239.59 -14.79)"/><path class="b" d="M404.32,58.06a10.11,10.11,0,0,1-6.29-2,6.94,6.94,0,0,1-4.85,2h-5.59a6.93,6.93,0,0,1-6.92-6.93v-5h1.51V27.79h-1.51v-5a6.92,6.92,0,0,1,6.92-6.92H399c8.85,0,14.8,5.69,14.8,14.17a13.76,13.76,0,0,1-4.9,10.65l2.78,1.84A6.54,6.54,0,0,1,414.65,48a6.31,6.31,0,0,1-.22,1.59C413.1,54.83,409.23,58.06,404.32,58.06Z" transform="translate(-239.59 -14.79)"/><path class="b" d="M428.07,58.06a6.93,6.93,0,0,1-6.92-6.93V48h-.51v3.14a6.92,6.92,0,0,1-6.89,6.93h-1.22a6.94,6.94,0,0,1-6.93-6.93v-5h2.77l5.19-18.47V22.79a6.93,6.93,0,0,1,6.92-6.92h6.15a6.93,6.93,0,0,1,6.92,6.92v4.57l4.77,18.77H441v5a6.94,6.94,0,0,1-6.93,6.93Z" transform="translate(-239.59 -14.79)"/><path class="b" d="M456.38,58.06a10.16,10.16,0,0,1-6.3-2,6.9,6.9,0,0,1-4.84,2h-5.59a6.93,6.93,0,0,1-6.92-6.93v-5h1.51V27.79h-1.51v-5a6.92,6.92,0,0,1,6.92-6.92h11.43c8.86,0,14.81,5.69,14.81,14.17A13.76,13.76,0,0,1,461,40.69l2.77,1.84A6.54,6.54,0,0,1,466.7,48a6.35,6.35,0,0,1-.21,1.58C465.16,54.83,461.29,58.06,456.38,58.06Z" transform="translate(-239.59 -14.79)"/><path class="b" d="M488.82,58.13c-10.9,0-17.95-8.31-17.95-21.17s7-21.17,17.92-21.17c11.08,0,16.06,8.16,16.06,14,0,3.8-1.73,6.79-4.5,8.24a6.59,6.59,0,0,1,4.17,6.15,6.23,6.23,0,0,1-.19,1.62C502.33,53.41,496.4,58.13,488.82,58.13ZM488,30.36a22.37,22.37,0,0,0-.66,5.72c0,8.06,2.46,8.06,3.51,8.06s2.27-.72,2.77-2.73l.67-2.7A8,8,0,0,1,488,30.6,1.93,1.93,0,0,1,488,30.36Z" transform="translate(-239.59 -14.79)"/><path class="b" d="M504.66,58.06a6.92,6.92,0,0,1-6.89-6.93v-5h1.52V27.79h-1.52v-5a6.91,6.91,0,0,1,6.89-6.92h5.62a6.93,6.93,0,0,1,6.93,6.92v5h-1.56V46.13h1.89a.39.39,0,0,0,.42-.34l.42-4.54h4.56a6.73,6.73,0,0,1,6.74,6.7v.41l-.37,4.14a6.28,6.28,0,0,1-6.22,5.56Z" transform="translate(-239.59 -14.79)"/><path class="b" d="M528.49,58.06a6.92,6.92,0,0,1-6.89-6.93v-5h1.52V27.79H521.6v-5a6.91,6.91,0,0,1,6.89-6.92h5.62A6.93,6.93,0,0,1,541,22.79v5h-1.56V46.13H541v5a6.94,6.94,0,0,1-6.93,6.93Z" transform="translate(-239.59 -14.79)"/><path class="b" d="M540.88,58.06A6.92,6.92,0,0,1,534,51.13v-5h1.52V27.79H534v-5a6.91,6.91,0,0,1,6.89-6.92H559a6.29,6.29,0,0,1,6.27,5.59l.36,4.11V26a6.7,6.7,0,0,1-4.31,6.25,6.88,6.88,0,0,1,.28,1.93v5.63a6.91,6.91,0,0,1-.22,1.71,6.72,6.72,0,0,1,5,6.46v.41L566,52.5a6.31,6.31,0,0,1-6.26,5.56Z" transform="translate(-239.59 -14.79)"/><path class="b" d="M584.32,58.06a7.2,7.2,0,0,1-6.05-3.32l-4.34-7.21v3.6A6.92,6.92,0,0,1,567,58.06h-1.15A6.9,6.9,0,0,1,559,51.13v-5h1.52V27.79H559v-5a6.91,6.91,0,0,1,6.92-6.92h4a7.17,7.17,0,0,1,6.15,3.49L577,20.8a6.94,6.94,0,0,1,6.63-4.93h1.15a6.92,6.92,0,0,1,6.92,6.92v5H590.1V58.06ZM573.09,46.13,572.41,45v1.12Z" transform="translate(-239.59 -14.79)"/><path class="b" d="M598.08,58.06a6.94,6.94,0,0,1-6.92-6.93v-5h1.55V32.68h-2.36a6.76,6.76,0,0,1-6.74-6.78v-.36l.39-4a6.29,6.29,0,0,1,6.24-5.66h21.31a6.27,6.27,0,0,1,6.23,5.59l.4,4.08v.36a6.76,6.76,0,0,1-6.74,6.78h-2.36V46.13h1.55v5a6.93,6.93,0,0,1-6.92,6.93Z" transform="translate(-239.59 -14.79)"/><path class="b" d="M617,58.06a6.92,6.92,0,0,1-6.88-6.93v-5h1.51V27.79h-1.51v-5A6.91,6.91,0,0,1,617,15.87h18.13a6.29,6.29,0,0,1,6.27,5.59l.36,4.11V26a6.71,6.71,0,0,1-4.3,6.25,7.25,7.25,0,0,1,.27,1.93v5.63a6.91,6.91,0,0,1-.22,1.71,6.73,6.73,0,0,1,5,6.46v.41l-.37,4.14a6.31,6.31,0,0,1-6.26,5.56Z" transform="translate(-239.59 -14.79)"/><path class="b" d="M650.25,58.1c-9.75,0-15.15-6.39-15.28-12.41V45.4a9,9,0,0,1,3.45-7.49,13.15,13.15,0,0,1-3.3-8.7V28.9c0-7.4,6-12.91,14.35-13.11H650c10.32,0,15.33,7.55,15.46,12.64v.32a8.8,8.8,0,0,1-2.8,6.7,13.35,13.35,0,0,1,3.42,8.75v.35c0,9.13-7.94,13.42-15.32,13.55h-.53Z" transform="translate(-239.59 -14.79)"/><path class="b" d="M263.23,57.06a10.15,10.15,0,0,1-6.29-2,6.92,6.92,0,0,1-4.84,2h-5.59a6.93,6.93,0,0,1-6.92-6.93v-5h1.51V26.79h-1.51v-5a6.92,6.92,0,0,1,6.92-6.92h11.43c8.86,0,14.81,5.69,14.81,14.17a13.76,13.76,0,0,1-4.9,10.65l2.78,1.84A6.55,6.55,0,0,1,273.56,47a6.45,6.45,0,0,1-.21,1.59C272,53.83,268.15,57.06,263.23,57.06Z" transform="translate(-239.59 -14.79)"/><path class="b" d="M273.26,57.06a6.92,6.92,0,0,1-6.89-6.93v-5h1.52V26.79h-1.52v-5a6.91,6.91,0,0,1,6.89-6.92h18.13a6.29,6.29,0,0,1,6.27,5.59l.36,4.11V25a6.7,6.7,0,0,1-4.31,6.25,6.88,6.88,0,0,1,.28,1.93v5.63a6.91,6.91,0,0,1-.22,1.71,6.72,6.72,0,0,1,5,6.46v.41l-.36,4.14a6.31,6.31,0,0,1-6.27,5.56Z" transform="translate(-239.59 -14.79)"/><path class="b" d="M319,57.13A6.9,6.9,0,0,1,315.21,56a20.51,20.51,0,0,1-6.65,1.12c-10.88,0-17.91-8.31-17.91-21.17s7-21.17,17.87-21.17c11.11,0,16.1,8.16,16.1,14a10.45,10.45,0,0,1-1,4.69,6.89,6.89,0,0,1,1.89,4.74v5H324v14ZM307.74,29.46a21.42,21.42,0,0,0-.61,5A6.86,6.86,0,0,1,308.4,33a8.82,8.82,0,0,1-.66-3.41Z" transform="translate(-239.59 -14.79)"/><path class="b" d="M325.21,57.06a6.92,6.92,0,0,1-6.89-6.93v-5h1.52V26.79h-1.52v-5a6.91,6.91,0,0,1,6.89-6.92h5.62a6.93,6.93,0,0,1,6.93,6.92v5H336.2V45.13h1.56v5a6.94,6.94,0,0,1-6.93,6.93Z" transform="translate(-239.59 -14.79)"/><path class="b" d="M346.08,57.1c-9.76,0-15.16-6.39-15.29-12.41V44.4a9,9,0,0,1,3.46-7.49,13.16,13.16,0,0,1-3.31-8.7V27.9c0-7.4,6-12.91,14.35-13.11h.53c10.33,0,15.34,7.55,15.47,12.64v.32a8.77,8.77,0,0,1-2.8,6.7,13.4,13.4,0,0,1,3.43,8.75v.35c0,9.13-7.94,13.42-15.31,13.55h-.53Z" transform="translate(-239.59 -14.79)"/><path class="b" d="M367.69,57.06a6.94,6.94,0,0,1-6.93-6.93v-5h1.56V31.68H360a6.77,6.77,0,0,1-6.74-6.78v-.36l.4-4a6.28,6.28,0,0,1,6.23-5.66h21.31a6.26,6.26,0,0,1,6.23,5.59l.4,4.08v.36A6.76,6.76,0,0,1,381,31.68h-2.36V45.13h1.55v5a6.93,6.93,0,0,1-6.92,6.93Z" transform="translate(-239.59 -14.79)"/><path class="b" d="M403.32,57.06a10.11,10.11,0,0,1-6.29-2,6.94,6.94,0,0,1-4.85,2h-5.59a6.93,6.93,0,0,1-6.92-6.93v-5h1.51V26.79h-1.51v-5a6.92,6.92,0,0,1,6.92-6.92H398c8.85,0,14.8,5.69,14.8,14.17a13.76,13.76,0,0,1-4.9,10.65l2.78,1.84A6.54,6.54,0,0,1,413.65,47a6.31,6.31,0,0,1-.22,1.59C412.1,53.83,408.23,57.06,403.32,57.06Z" transform="translate(-239.59 -14.79)"/><path class="b" d="M427.07,57.06a6.93,6.93,0,0,1-6.92-6.93V47h-.51v3.14a6.92,6.92,0,0,1-6.89,6.93h-1.22a6.94,6.94,0,0,1-6.93-6.93v-5h2.77l5.19-18.47V21.79a6.93,6.93,0,0,1,6.92-6.92h6.15a6.93,6.93,0,0,1,6.92,6.92v4.57l4.77,18.77H440v5a6.94,6.94,0,0,1-6.93,6.93Z" transform="translate(-239.59 -14.79)"/><path class="b" d="M455.38,57.06a10.16,10.16,0,0,1-6.3-2,6.9,6.9,0,0,1-4.84,2h-5.59a6.93,6.93,0,0,1-6.92-6.93v-5h1.51V26.79h-1.51v-5a6.92,6.92,0,0,1,6.92-6.92h11.43c8.86,0,14.81,5.69,14.81,14.17A13.76,13.76,0,0,1,460,39.69l2.77,1.84A6.54,6.54,0,0,1,465.7,47a6.35,6.35,0,0,1-.21,1.58C464.16,53.83,460.29,57.06,455.38,57.06Z" transform="translate(-239.59 -14.79)"/><path class="b" d="M487.82,57.13c-10.9,0-17.95-8.31-17.95-21.17s7-21.17,17.92-21.17c11.08,0,16.06,8.16,16.06,14,0,3.8-1.73,6.79-4.5,8.24a6.59,6.59,0,0,1,4.17,6.15,6.23,6.23,0,0,1-.19,1.62C501.33,52.41,495.4,57.13,487.82,57.13ZM487,29.36a22.37,22.37,0,0,0-.66,5.72c0,8.06,2.46,8.06,3.51,8.06s2.27-.72,2.77-2.73l.67-2.7A8,8,0,0,1,487,29.6,1.93,1.93,0,0,1,487,29.36Z" transform="translate(-239.59 -14.79)"/><path class="b" d="M503.66,57.06a6.92,6.92,0,0,1-6.89-6.93v-5h1.52V26.79h-1.52v-5a6.91,6.91,0,0,1,6.89-6.92h5.62a6.93,6.93,0,0,1,6.93,6.92v5h-1.56V45.13h1.89a.39.39,0,0,0,.42-.34l.42-4.54h4.56a6.73,6.73,0,0,1,6.74,6.7v.41l-.37,4.14a6.28,6.28,0,0,1-6.22,5.56Z" transform="translate(-239.59 -14.79)"/><path class="b" d="M527.49,57.06a6.92,6.92,0,0,1-6.89-6.93v-5h1.52V26.79H520.6v-5a6.91,6.91,0,0,1,6.89-6.92h5.62A6.93,6.93,0,0,1,540,21.79v5h-1.56V45.13H540v5a6.94,6.94,0,0,1-6.93,6.93Z" transform="translate(-239.59 -14.79)"/><path class="b" d="M539.88,57.06A6.92,6.92,0,0,1,533,50.13v-5h1.52V26.79H533v-5a6.91,6.91,0,0,1,6.89-6.92H558a6.29,6.29,0,0,1,6.27,5.59l.36,4.11V25a6.7,6.7,0,0,1-4.31,6.25,6.88,6.88,0,0,1,.28,1.93v5.63a6.91,6.91,0,0,1-.22,1.71,6.72,6.72,0,0,1,5,6.46v.41L565,51.5a6.31,6.31,0,0,1-6.26,5.56Z" transform="translate(-239.59 -14.79)"/><path class="b" d="M583.32,57.06a7.2,7.2,0,0,1-6.05-3.32l-4.34-7.21v3.6A6.92,6.92,0,0,1,566,57.06h-1.15A6.9,6.9,0,0,1,558,50.13v-5h1.52V26.79H558v-5a6.91,6.91,0,0,1,6.92-6.92h4a7.17,7.17,0,0,1,6.15,3.49L576,19.8a6.94,6.94,0,0,1,6.63-4.93h1.15a6.92,6.92,0,0,1,6.92,6.92v5H589.1V57.06ZM572.09,45.13,571.41,44v1.12Z" transform="translate(-239.59 -14.79)"/><path class="b" d="M597.08,57.06a6.94,6.94,0,0,1-6.92-6.93v-5h1.55V31.68h-2.36a6.76,6.76,0,0,1-6.74-6.78v-.36l.39-4a6.29,6.29,0,0,1,6.24-5.66h21.31a6.27,6.27,0,0,1,6.23,5.59l.4,4.08v.36a6.76,6.76,0,0,1-6.74,6.78h-2.36V45.13h1.55v5a6.93,6.93,0,0,1-6.92,6.93Z" transform="translate(-239.59 -14.79)"/><path class="b" d="M616,57.06a6.92,6.92,0,0,1-6.88-6.93v-5h1.51V26.79h-1.51v-5A6.91,6.91,0,0,1,616,14.87h18.13a6.29,6.29,0,0,1,6.27,5.59l.36,4.11V25a6.71,6.71,0,0,1-4.3,6.25,7.25,7.25,0,0,1,.27,1.93v5.63a6.91,6.91,0,0,1-.22,1.71,6.73,6.73,0,0,1,5,6.46v.41l-.37,4.14a6.31,6.31,0,0,1-6.26,5.56Z" transform="translate(-239.59 -14.79)"/><path class="b" d="M649.25,57.1c-9.75,0-15.15-6.39-15.28-12.41V44.4a9,9,0,0,1,3.45-7.49,13.15,13.15,0,0,1-3.3-8.7V27.9c0-7.4,6-12.91,14.35-13.11H649c10.32,0,15.33,7.55,15.46,12.64v.32a8.8,8.8,0,0,1-2.8,6.7,13.35,13.35,0,0,1,3.42,8.75v.35c0,9.13-7.94,13.42-15.32,13.55h-.53Z" transform="translate(-239.59 -14.79)"/><path class="b" d="M263.23,55.06a8.09,8.09,0,0,1-6.59-3,4.92,4.92,0,0,1-4.54,3h-5.59a4.93,4.93,0,0,1-4.92-4.93,3,3,0,0,1,1.51-2.6V24.4a3,3,0,0,1-1.51-2.61,4.92,4.92,0,0,1,4.92-4.92h11.43c7.78,0,12.81,4.78,12.81,12.17a11.8,11.8,0,0,1-7.26,11c.27.46.51.92.74,1.35a13.72,13.72,0,0,0,1.39,2.27,3,3,0,0,1,1.59-.93,2.81,2.81,0,0,1,.65-.07,3,3,0,0,1,1.66.5,4.52,4.52,0,0,1,2,3.79,4.31,4.31,0,0,1-.15,1.09C270.31,52.44,267.25,55.06,263.23,55.06ZM255.5,33.15c2.48-.58,2.88-2.74,2.88-4.11,0-2.32-1-3.7-2.88-4.11Z" transform="translate(-239.59 -14.79)"/><path class="b" d="M273.26,55.06a4.92,4.92,0,0,1-4.89-4.93,3,3,0,0,1,1.52-2.6V24.4a3,3,0,0,1-1.52-2.61,4.92,4.92,0,0,1,4.89-4.92h18.13a4.29,4.29,0,0,1,4.28,3.81L296,24.6v.34a4.74,4.74,0,0,1-4.74,4.74,3,3,0,0,1-.86-.13,4.93,4.93,0,0,1,1.57,3.6v5.63a4.91,4.91,0,0,1-4.93,4.88,3,3,0,0,1-3-3,.73.73,0,0,0-.73-.73h-1.08v7.2h4.33A2.4,2.4,0,0,0,289,45a3,3,0,0,1,3-2.72,4.72,4.72,0,0,1,4.74,4.7v.27l-.34,4a4.33,4.33,0,0,1-4.29,3.89ZM283.33,32a.73.73,0,0,0,.73-.77,3,3,0,0,1,3-3,4.93,4.93,0,0,1,1.93.39,3,3,0,0,1-.7-1.67,2.45,2.45,0,0,0-2.41-2.16h-3.63V32Z" transform="translate(-239.59 -14.79)"/><path class="b" d="M319,55.13a4.93,4.93,0,0,1-3.4-1.39,18.48,18.48,0,0,1-7,1.39c-9.82,0-15.91-7.34-15.91-19.17s6.08-19.17,15.87-19.17c10.66,0,14.1,8.06,14.1,12a7.48,7.48,0,0,1-1.73,5.13,4.86,4.86,0,0,1,2.58,4.3A3,3,0,0,1,322,40.79V52.13A3,3,0,0,1,319,55.13Zm-9.25-30.41c-4.26,0-4.59,7.93-4.59,10.36,0,7.83,2.5,9.56,4.44,10V40.79A3,3,0,0,1,308,38.18a4.87,4.87,0,0,1,3-4.51,6.46,6.46,0,0,1-1.34-4.07,6.23,6.23,0,0,1,1.62-4.39A3.31,3.31,0,0,0,309.71,24.72Z" transform="translate(-239.59 -14.79)"/><path class="b" d="M325.21,55.06a4.91,4.91,0,0,1-4.89-4.93,3,3,0,0,1,1.52-2.6V24.4a3,3,0,0,1-1.52-2.61,4.91,4.91,0,0,1,4.89-4.92h5.62a4.93,4.93,0,0,1,4.93,4.92,3,3,0,0,1-1.56,2.63V47.51a3,3,0,0,1,1.56,2.62,4.93,4.93,0,0,1-4.93,4.93Z" transform="translate(-239.59 -14.79)"/><path class="b" d="M346.08,55.1c-8.49,0-13.18-5.39-13.29-10.45V44.4c0-3.58,2-6.26,5-6.92a11.54,11.54,0,0,1-4.86-9.32V27.9c0-7.43,6.43-11,12.4-11.11h.48c9,0,13.36,6.38,13.47,10.7v.25c0,3.13-1.5,5.43-4,6.34a11.91,11.91,0,0,1,4.62,9.17v.29c0,7.79-6.92,11.45-13.35,11.56h-.49Zm-1.54-7.76a3.08,3.08,0,0,0,.61,0h.19c2.18-.07,2.18-1.49,2.18-2v-.22c0-1.26-.76-2.16-2.09-3.07a7.27,7.27,0,0,1,.17,1.43v.23A6.3,6.3,0,0,1,344.54,47.34Zm1.94-22.81c-1.81,0-1.81,1.17-1.81,1.59v.15c0,.71.73,1.43,1.78,2.18,0,0,0-.25,0-.25a6.49,6.49,0,0,1,1-3.59,4.51,4.51,0,0,0-.83-.08Z" transform="translate(-239.59 -14.79)"/><path class="b" d="M367.69,55.06a4.93,4.93,0,0,1-4.93-4.93,3,3,0,0,1,1.56-2.62V25A2.47,2.47,0,0,0,362.93,27a3,3,0,0,1-3,2.69,4.77,4.77,0,0,1-4.74-4.78v-.21l.39-4a4.23,4.23,0,0,1,4.24-3.85h21.31a4.27,4.27,0,0,1,4.24,3.81l.38,3.89v.28A4.78,4.78,0,0,1,381,29.68a3,3,0,0,1-3-2.69A2.44,2.44,0,0,0,376.68,25V47.51a3,3,0,0,1,1.55,2.62,4.93,4.93,0,0,1-4.92,4.93Z" transform="translate(-239.59 -14.79)"/><path class="b" d="M403.32,55.06a8.1,8.1,0,0,1-6.6-3,4.92,4.92,0,0,1-4.54,3h-5.59a4.93,4.93,0,0,1-4.92-4.93,3,3,0,0,1,1.51-2.6V24.4a3,3,0,0,1-1.51-2.61,4.93,4.93,0,0,1,4.92-4.92H398c7.77,0,12.8,4.78,12.8,12.17a11.8,11.8,0,0,1-7.26,11c.27.46.51.92.74,1.35a13.72,13.72,0,0,0,1.39,2.27,3,3,0,0,1,1.59-.93,2.81,2.81,0,0,1,.65-.07,3,3,0,0,1,1.66.5,4.53,4.53,0,0,1,2,3.79,3.8,3.8,0,0,1-.16,1.09C410.39,52.44,407.33,55.06,403.32,55.06Zm-7.73-21.91c2.47-.58,2.88-2.74,2.88-4.11,0-2.32-1-3.7-2.88-4.11Z" transform="translate(-239.59 -14.79)"/><path class="b" d="M427.07,55.06a4.93,4.93,0,0,1-4.92-4.93,3,3,0,0,1,1.05-2.27L422.45,45h-4.73l-.87,3.12a3,3,0,0,1,.79,2,4.92,4.92,0,0,1-4.89,4.93h-1.22a4.93,4.93,0,0,1-4.93-4.93,3,3,0,0,1,2.26-2.9l6.56-23.34a3,3,0,0,1-.86-2.1,4.93,4.93,0,0,1,4.92-4.92h6.15a4.93,4.93,0,0,1,4.92,4.92,3,3,0,0,1-.73,2c.61,2.39,2.13,8.38,6,23.49a3,3,0,0,1,2.2,2.89,4.93,4.93,0,0,1-4.93,4.93Zm-6.66-18-.23-.88-.25.88Z" transform="translate(-239.59 -14.79)"/><path class="b" d="M455.38,55.06a8.1,8.1,0,0,1-6.6-3,4.92,4.92,0,0,1-4.54,3h-5.59a4.93,4.93,0,0,1-4.92-4.93,3,3,0,0,1,1.51-2.6V24.4a3,3,0,0,1-1.51-2.61,4.93,4.93,0,0,1,4.92-4.92h11.43c7.78,0,12.81,4.78,12.81,12.17a11.8,11.8,0,0,1-7.26,11c.27.46.51.92.74,1.35a13.32,13.32,0,0,0,1.39,2.27,3,3,0,0,1,1.59-.93,2.81,2.81,0,0,1,.65-.07,3,3,0,0,1,1.66.5,4.52,4.52,0,0,1,2,3.79,4.11,4.11,0,0,1-.14,1C462.45,52.44,459.39,55.06,455.38,55.06Zm-7.74-21.91c2.48-.58,2.89-2.74,2.89-4.11,0-2.32-1-3.7-2.89-4.11Z" transform="translate(-239.59 -14.79)"/><path class="b" d="M487.82,55.13c-9.84,0-15.95-7.34-15.95-19.17s6.1-19.17,15.92-19.17c10.62,0,14.06,8.06,14.06,12,0,4.36-2.56,7.18-6.52,7.18A6.06,6.06,0,0,1,489,29.6a6.24,6.24,0,0,1,1.6-4.39,3.25,3.25,0,0,0-1.63-.49c-4.17,0-4.62,7.24-4.62,10.36,0,10.06,3.86,10.06,5.51,10.06.61,0,3.7-.21,4.71-4.24A3,3,0,0,1,496.1,39a3,3,0,0,1,1.38-.33,3.07,3.07,0,0,1,1.08.19,4.61,4.61,0,0,1,3,4.32,4.32,4.32,0,0,1-.13,1.14C499.64,51,494.44,55.13,487.82,55.13Z" transform="translate(-239.59 -14.79)"/><path class="b" d="M503.66,55.06a4.91,4.91,0,0,1-4.89-4.93,3,3,0,0,1,1.52-2.6V24.4a3,3,0,0,1-1.52-2.61,4.91,4.91,0,0,1,4.89-4.92h5.62a4.93,4.93,0,0,1,4.93,4.92,3,3,0,0,1-1.56,2.63V47.13h3.89A2.39,2.39,0,0,0,519,45a3,3,0,0,1,3-2.72,4.68,4.68,0,0,1,4.74,4.7v.27l-.35,4a4.3,4.3,0,0,1-4.24,3.89Z" transform="translate(-239.59 -14.79)"/><path class="b" d="M527.49,55.06a4.91,4.91,0,0,1-4.89-4.93,3,3,0,0,1,1.52-2.6V24.4a3,3,0,0,1-1.52-2.61,4.91,4.91,0,0,1,4.89-4.92h5.62A4.93,4.93,0,0,1,538,21.79a3,3,0,0,1-1.56,2.63V47.51A3,3,0,0,1,538,50.13a4.93,4.93,0,0,1-4.93,4.93Z" transform="translate(-239.59 -14.79)"/><path class="b" d="M539.88,55.06A4.92,4.92,0,0,1,535,50.13a3,3,0,0,1,1.52-2.6V24.4A3,3,0,0,1,535,21.79a4.92,4.92,0,0,1,4.89-4.92H558a4.29,4.29,0,0,1,4.28,3.81l.35,3.92v.34a4.74,4.74,0,0,1-4.74,4.74,3,3,0,0,1-.86-.13,4.93,4.93,0,0,1,1.57,3.6v5.63a4.91,4.91,0,0,1-4.93,4.88,3,3,0,0,1-3-3,.73.73,0,0,0-.73-.73h-1.07v7.2h4.32A2.4,2.4,0,0,0,555.62,45a3,3,0,0,1,3-2.72,4.72,4.72,0,0,1,4.74,4.7v.27l-.34,4a4.33,4.33,0,0,1-4.28,3.89ZM550,32a.73.73,0,0,0,.73-.77,3,3,0,0,1,3-3,4.93,4.93,0,0,1,1.93.39,3,3,0,0,1-.7-1.66,2.45,2.45,0,0,0-2.41-2.17h-3.62V32Z" transform="translate(-239.59 -14.79)"/><path class="b" d="M583.32,55.06A5.25,5.25,0,0,1,579,52.65l-9.54-15.84V47.53a3,3,0,0,1,1.52,2.6A4.91,4.91,0,0,1,566,55.06h-1.15A4.88,4.88,0,0,1,560,50.13a3,3,0,0,1,1.52-2.6V24.4A3,3,0,0,1,560,21.79a5.08,5.08,0,0,1,.75-2.63,4.94,4.94,0,0,1,4.17-2.29h4a5.15,5.15,0,0,1,4.43,2.51l5.85,9.69V24.42a3,3,0,0,1-1.55-2.63,4.93,4.93,0,0,1,4.92-4.92h1.15a4.93,4.93,0,0,1,4.92,4.92,3,3,0,0,1-1.55,2.63V52.06a3,3,0,0,1-3,3Z" transform="translate(-239.59 -14.79)"/><path class="b" d="M597.08,55.06a4.93,4.93,0,0,1-4.92-4.93,3,3,0,0,1,1.55-2.62V25A2.48,2.48,0,0,0,592.33,27a3,3,0,0,1-3,2.69,4.77,4.77,0,0,1-4.74-4.78v-.21l.38-4a4.24,4.24,0,0,1,4.25-3.85h21.31a4.27,4.27,0,0,1,4.24,3.81l.38,3.89v.28a4.78,4.78,0,0,1-4.74,4.83,3,3,0,0,1-3-2.69A2.44,2.44,0,0,0,606.08,25V47.51a3,3,0,0,1,1.55,2.62,4.93,4.93,0,0,1-4.92,4.93Z" transform="translate(-239.59 -14.79)"/><path class="b" d="M616,55.06a4.91,4.91,0,0,1-4.88-4.93,3,3,0,0,1,1.51-2.6V24.4a3,3,0,0,1-1.51-2.61A4.91,4.91,0,0,1,616,16.87h18.13a4.29,4.29,0,0,1,4.28,3.81l.35,3.92v.34A4.73,4.73,0,0,1,634,29.68a3.09,3.09,0,0,1-.86-.13,4.89,4.89,0,0,1,1.57,3.6v5.63a4.91,4.91,0,0,1-4.92,4.88,3,3,0,0,1-3-3,.74.74,0,0,0-.74-.73H625v7.2h4.32A2.39,2.39,0,0,0,631.69,45a3,3,0,0,1,3-2.72,4.73,4.73,0,0,1,4.74,4.7v.27l-.35,4a4.33,4.33,0,0,1-4.28,3.89ZM626,32a.73.73,0,0,0,.74-.77,3,3,0,0,1,3-3,4.91,4.91,0,0,1,1.92.39A3,3,0,0,1,631,27a2.46,2.46,0,0,0-2.42-2.17H625V32Z" transform="translate(-239.59 -14.79)"/><path class="b" d="M649.25,55.1c-8.48,0-13.17-5.39-13.28-10.45V44.4c0-3.58,2-6.26,5-6.92a11.52,11.52,0,0,1-4.86-9.32V27.9c0-7.43,6.42-11,12.4-11.11H649c9,0,13.36,6.38,13.48,10.7v.26c0,3.12-1.51,5.42-4,6.33a11.87,11.87,0,0,1,4.61,9.17v.3c0,7.78-6.92,11.44-13.35,11.55h-.5Zm-1.53-7.76a3.08,3.08,0,0,0,.61,0h.18c2.18-.07,2.18-1.49,2.18-2v-.22c0-1.26-.75-2.16-2.08-3.07a7.27,7.27,0,0,1,.17,1.43v.23A6.3,6.3,0,0,1,647.72,47.34Zm1.94-22.81c-1.81,0-1.81,1.17-1.81,1.59v.15c0,.71.73,1.43,1.78,2.18a2.09,2.09,0,0,1,0-.24,6.5,6.5,0,0,1,1-3.6,4.6,4.6,0,0,0-.84-.08Z" transform="translate(-239.59 -14.79)"/><path class="c" d="M268.56,47a1.47,1.47,0,0,1-.07.41c-.85,3.36-3,4.66-5.26,4.66-8.14,0-6-13.88-10.73-13.88V48.62A1.5,1.5,0,0,0,254,50.13a1.91,1.91,0,0,1-1.92,1.93h-5.59a1.91,1.91,0,0,1-1.92-1.93,1.49,1.49,0,0,0,1.51-1.51V23.31a1.5,1.5,0,0,0-1.51-1.52,1.91,1.91,0,0,1,1.92-1.92h11.43c6.77,0,9.81,4.1,9.81,9.17s-3.78,9-9.51,9.14c3.63,3,3.92,8.62,7.51,8.62a2.63,2.63,0,0,0,2.11-1.1A1.54,1.54,0,0,1,268.56,47ZM252.5,36.3h1.63c4.85,0,7.25-3.26,7.25-7.26s-2.4-7.25-7.25-7.25H254a1.51,1.51,0,0,0-1.52,1.52Z" transform="translate(-239.59 -14.79)"/><path class="c" d="M293.72,47v.19l-.33,3.77a1.32,1.32,0,0,1-1.3,1.15H273.26a1.9,1.9,0,0,1-1.89-1.93,1.52,1.52,0,0,0,1.52-1.51V23.31a1.53,1.53,0,0,0-1.52-1.52,1.9,1.9,0,0,1,1.89-1.92h18.13a1.29,1.29,0,0,1,1.3,1.14l.33,3.78V25a1.74,1.74,0,0,1-1.74,1.71,5.43,5.43,0,0,0-5.4-4.89h-5.07a1.54,1.54,0,0,0-1.56,1.52V35h4.08a3.73,3.73,0,0,0,3.73-3.77A1.93,1.93,0,0,1,289,33.15v5.63a1.9,1.9,0,0,1-1.93,1.88,3.72,3.72,0,0,0-3.73-3.73h-4.08V48.62a1.53,1.53,0,0,0,1.56,1.51h5.77a5.38,5.38,0,0,0,5.4-4.88A1.73,1.73,0,0,1,293.72,47Z" transform="translate(-239.59 -14.79)"/><path class="c" d="M319,39.74V52.13a1.88,1.88,0,0,1-1.56-.85l-.88-1.44a14.84,14.84,0,0,1-8,2.29c-9.07,0-12.91-7.29-12.91-16.17s3.81-16.17,12.87-16.17c8.22,0,11.1,5.92,11.1,9,0,2.88-1.51,4.18-3.51,4.18a3.09,3.09,0,0,1-3.37-3.33,2.88,2.88,0,0,1,3.11-3.18,6.58,6.58,0,0,0-6.14-4.7c-5.22,0-7.59,5.51-7.59,13.36,0,8.73,3,13.06,8.88,13.06a5.56,5.56,0,0,0,1.56-.19V39.74a1.48,1.48,0,0,0-.45-1.11,1.51,1.51,0,0,0-1.07-.45A1.9,1.9,0,0,1,313,36.3h5.63a1.89,1.89,0,0,1,1.88,1.88A1.53,1.53,0,0,0,319,39.74Z" transform="translate(-239.59 -14.79)"/><path class="c" d="M331.2,23.31V48.62a1.53,1.53,0,0,0,1.56,1.51,1.94,1.94,0,0,1-1.93,1.93h-5.62a1.9,1.9,0,0,1-1.89-1.93,1.52,1.52,0,0,0,1.52-1.51V23.31a1.53,1.53,0,0,0-1.52-1.52,1.9,1.9,0,0,1,1.89-1.92h5.62a1.94,1.94,0,0,1,1.93,1.92A1.54,1.54,0,0,0,331.2,23.31Z" transform="translate(-239.59 -14.79)"/><path class="c" d="M341.67,26.27c.15,6.81,15,7.1,15.25,17.06v.22c0,6.36-6,8.47-10.4,8.55h-.44c-6.92,0-10.22-4.11-10.29-7.52V44.4c0-2.63,1.41-4,3.4-4.07h.12a3,3,0,0,1,3.29,3.22v.18a2.81,2.81,0,0,1-3,3.07,5.89,5.89,0,0,0,5.55,3.59h.19c2.14-.07,5.18-1.22,5.18-5v-.22c-.19-8.33-14.32-6.73-14.58-17.06V27.9c0-5.33,4.7-8,9.47-8.11h.41c7.18,0,10.4,4.92,10.47,7.77v.19c0,2.66-1.52,3.74-3.48,3.77h-.11a3,3,0,0,1-3.26-3.22v-.11a2.69,2.69,0,0,1,3-3h.3a6.53,6.53,0,0,0-6.1-3.63h-.12c-2.92.08-4.81,1.89-4.81,4.59Z" transform="translate(-239.59 -14.79)"/><path class="c" d="M382.78,24.9A1.77,1.77,0,0,1,381,26.68a5.45,5.45,0,0,0-5.44-4.89h-.37a1.53,1.53,0,0,0-1.55,1.52V48.62a1.52,1.52,0,0,0,1.55,1.51,1.93,1.93,0,0,1-1.92,1.93h-5.62a1.94,1.94,0,0,1-1.93-1.93,1.53,1.53,0,0,0,1.56-1.51V23.31a1.54,1.54,0,0,0-1.56-1.52h-.37A5.46,5.46,0,0,0,360,26.68a1.78,1.78,0,0,1-1.74-1.78v-.11l.37-3.78a1.25,1.25,0,0,1,1.26-1.14h21.31A1.25,1.25,0,0,1,382.41,21l.37,3.78Z" transform="translate(-239.59 -14.79)"/><path class="c" d="M408.65,47a1.49,1.49,0,0,1-.08.41c-.85,3.36-3,4.66-5.25,4.66-8.14,0-6-13.88-10.73-13.88V48.62a1.49,1.49,0,0,0,1.51,1.51,1.91,1.91,0,0,1-1.92,1.93h-5.59a1.91,1.91,0,0,1-1.92-1.93,1.49,1.49,0,0,0,1.51-1.51V23.31a1.5,1.5,0,0,0-1.51-1.52,1.91,1.91,0,0,1,1.92-1.92H398c6.77,0,9.8,4.1,9.8,9.17s-3.77,9-9.51,9.14c3.63,3,3.92,8.62,7.51,8.62a2.63,2.63,0,0,0,2.11-1.1A1.53,1.53,0,0,1,408.65,47ZM392.59,36.3h1.62c4.85,0,7.26-3.26,7.26-7.26s-2.41-7.25-7.26-7.25h-.11a1.5,1.5,0,0,0-1.51,1.52Z" transform="translate(-239.59 -14.79)"/><path class="c" d="M433.06,48.69A2,2,0,0,0,435,50.13a1.91,1.91,0,0,1-1.93,1.93h-6a1.91,1.91,0,0,1-1.92-1.93,1.3,1.3,0,0,0,1.33-1.33,1.17,1.17,0,0,0,0-.37L424.78,42h-9.33l-1.89,6.7a1.27,1.27,0,0,0,0,.34,1.11,1.11,0,0,0,1.11,1.1,1.9,1.9,0,0,1-1.89,1.93h-1.22a1.94,1.94,0,0,1-1.93-1.93,2,2,0,0,0,2-1.44l7.14-25.42a1,1,0,0,0,0-.29,1.19,1.19,0,0,0-1.18-1.19,1.91,1.91,0,0,1,1.92-1.92h6.15a1.91,1.91,0,0,1,1.92,1.92,1.05,1.05,0,0,0-1,1,.77.77,0,0,0,0,.26Zm-8.77-8.62-4-15.32L416,40.07Z" transform="translate(-239.59 -14.79)"/><path class="c" d="M460.7,47a1.47,1.47,0,0,1-.07.41c-.85,3.36-3,4.66-5.25,4.66-8.15,0-6-13.88-10.74-13.88V48.62a1.5,1.5,0,0,0,1.52,1.51,1.91,1.91,0,0,1-1.92,1.93h-5.59a1.91,1.91,0,0,1-1.92-1.93,1.49,1.49,0,0,0,1.51-1.51V23.31a1.5,1.5,0,0,0-1.51-1.52,1.91,1.91,0,0,1,1.92-1.92h11.43c6.78,0,9.81,4.1,9.81,9.17s-3.77,9-9.51,9.14c3.63,3,3.92,8.62,7.51,8.62A2.63,2.63,0,0,0,460,45.7,1.52,1.52,0,0,1,460.7,47ZM444.64,36.3h1.63c4.85,0,7.26-3.26,7.26-7.26s-2.41-7.25-7.26-7.25h-.11a1.51,1.51,0,0,0-1.52,1.52Z" transform="translate(-239.59 -14.79)"/><path class="c" d="M498.52,43.14a1.43,1.43,0,0,1,0,.41c-1.52,5.81-5.77,8.58-10.66,8.58-9.06,0-12.95-7.29-12.95-16.17s3.85-16.17,12.92-16.17c8.17,0,11.06,5.92,11.06,9s-1.48,4.18-3.52,4.18A3.08,3.08,0,0,1,492,29.6a2.85,2.85,0,0,1,3.08-3.18,6.57,6.57,0,0,0-6.11-4.7c-5.25,0-7.62,5.51-7.62,13.36,0,8.73,2.88,13.06,8.51,13.06,3.11,0,6.51-2.08,7.62-6.51A1.58,1.58,0,0,1,498.52,43.14Z" transform="translate(-239.59 -14.79)"/><path class="c" d="M523.68,47v.19l-.34,3.77a1.31,1.31,0,0,1-1.25,1.15H503.66a1.9,1.9,0,0,1-1.89-1.93,1.52,1.52,0,0,0,1.52-1.51V23.31a1.53,1.53,0,0,0-1.52-1.52,1.9,1.9,0,0,1,1.89-1.92h5.62a1.94,1.94,0,0,1,1.93,1.92,1.54,1.54,0,0,0-1.56,1.52V48.62a1.53,1.53,0,0,0,1.56,1.51h5.33a5.39,5.39,0,0,0,5.4-4.88A1.71,1.71,0,0,1,523.68,47Z" transform="translate(-239.59 -14.79)"/><path class="c" d="M533.48,23.31V48.62A1.53,1.53,0,0,0,535,50.13a1.94,1.94,0,0,1-1.93,1.93h-5.62a1.9,1.9,0,0,1-1.89-1.93,1.52,1.52,0,0,0,1.52-1.51V23.31a1.53,1.53,0,0,0-1.52-1.52,1.9,1.9,0,0,1,1.89-1.92h5.62A1.94,1.94,0,0,1,535,21.79,1.53,1.53,0,0,0,533.48,23.31Z" transform="translate(-239.59 -14.79)"/><path class="c" d="M560.34,47v.19L560,50.91a1.32,1.32,0,0,1-1.29,1.15H539.88A1.91,1.91,0,0,1,538,50.13a1.52,1.52,0,0,0,1.52-1.51V23.31A1.53,1.53,0,0,0,538,21.79a1.91,1.91,0,0,1,1.89-1.92H558a1.29,1.29,0,0,1,1.3,1.14l.33,3.78V25a1.74,1.74,0,0,1-1.74,1.71,5.43,5.43,0,0,0-5.4-4.89h-5.07a1.53,1.53,0,0,0-1.55,1.52V35H550a3.73,3.73,0,0,0,3.73-3.77,1.93,1.93,0,0,1,1.93,1.92v5.63a1.9,1.9,0,0,1-1.93,1.88A3.72,3.72,0,0,0,550,36.93h-4.07V48.62a1.52,1.52,0,0,0,1.55,1.51h5.77a5.38,5.38,0,0,0,5.4-4.88A1.73,1.73,0,0,1,560.34,47Z" transform="translate(-239.59 -14.79)"/><path class="c" d="M583.73,19.87a1.91,1.91,0,0,1,1.92,1.92,1.53,1.53,0,0,0-1.55,1.52V52.06h-.78a2.25,2.25,0,0,1-1.85-1L566.41,26V48.62a1.6,1.6,0,0,0,.44,1.07,1.48,1.48,0,0,0,1.08.44A1.9,1.9,0,0,1,566,52.06h-1.15A1.9,1.9,0,0,1,563,50.13a1.5,1.5,0,0,0,1.52-1.51V23.31a1.39,1.39,0,0,0-.45-1.07,1.4,1.4,0,0,0-1.07-.45,2,2,0,0,1,.3-1,1.93,1.93,0,0,1,1.62-.88h4a2.15,2.15,0,0,1,1.85,1l11.43,19V23.31a1.54,1.54,0,0,0-.44-1.07,1.51,1.51,0,0,0-1.11-.45,1.93,1.93,0,0,1,1.92-1.92Z" transform="translate(-239.59 -14.79)"/><path class="c" d="M612.18,24.9a1.78,1.78,0,0,1-1.74,1.78A5.46,5.46,0,0,0,605,21.79h-.37a1.53,1.53,0,0,0-1.55,1.52V48.62a1.52,1.52,0,0,0,1.55,1.51,1.94,1.94,0,0,1-1.92,1.93h-5.63a1.94,1.94,0,0,1-1.92-1.93,1.52,1.52,0,0,0,1.55-1.51V23.31a1.53,1.53,0,0,0-1.55-1.52h-.37a5.46,5.46,0,0,0-5.44,4.89,1.78,1.78,0,0,1-1.74-1.78v-.11L588,21a1.25,1.25,0,0,1,1.26-1.14h21.31A1.25,1.25,0,0,1,611.81,21l.37,3.78Z" transform="translate(-239.59 -14.79)"/><path class="c" d="M636.42,47v.19l-.34,3.77a1.32,1.32,0,0,1-1.29,1.15H616a1.9,1.9,0,0,1-1.88-1.93,1.51,1.51,0,0,0,1.51-1.51V23.31a1.52,1.52,0,0,0-1.51-1.52A1.9,1.9,0,0,1,616,19.87h18.13a1.28,1.28,0,0,1,1.3,1.14l.33,3.78V25A1.73,1.73,0,0,1,634,26.68a5.42,5.42,0,0,0-5.4-4.89H623.5A1.53,1.53,0,0,0,622,23.31V35H626a3.73,3.73,0,0,0,3.74-3.77,1.93,1.93,0,0,1,1.92,1.92v5.63a1.9,1.9,0,0,1-1.92,1.88A3.73,3.73,0,0,0,626,36.93H622V48.62a1.52,1.52,0,0,0,1.55,1.51h5.77a5.39,5.39,0,0,0,5.41-4.88A1.73,1.73,0,0,1,636.42,47Z" transform="translate(-239.59 -14.79)"/><path class="c" d="M644.85,26.27c.15,6.81,15,7.1,15.25,17.06v.22c0,6.36-6,8.47-10.4,8.55h-.45C642.33,52.1,639,48,639,44.58V44.4c0-2.63,1.4-4,3.4-4.07h.11a3,3,0,0,1,3.3,3.22v.18a2.81,2.81,0,0,1-3,3.07,5.88,5.88,0,0,0,5.55,3.59h.18c2.15-.07,5.18-1.22,5.18-5v-.22c-.18-8.33-14.31-6.73-14.57-17.06V27.9c0-5.33,4.69-8,9.47-8.11H649c7.17,0,10.39,4.92,10.47,7.77v.19c0,2.66-1.52,3.74-3.48,3.77h-.11a3,3,0,0,1-3.26-3.22v-.11a2.69,2.69,0,0,1,3-3h.3a6.54,6.54,0,0,0-6.11-3.63h-.11c-2.92.08-4.81,1.89-4.81,4.59Z" transform="translate(-239.59 -14.79)"/></svg>